<svg width="14" height="16" viewBox="0 0 14 16" fill="none" xmlns="http://www.w3.org/2000/svg">
<path d="M11.84 2.16H10.4399V0.650024C10.4413 0.603686 10.4332 0.557555 10.4161 0.514465C10.399 0.471375 10.3734 0.432224 10.3406 0.399444C10.3078 0.366663 10.2687 0.340921 10.2256 0.323821C10.1825 0.306722 10.1363 0.298633 10.09 0.300018H8.93005C8.88455 0.299998 8.8394 0.309103 8.79749 0.326812C8.75557 0.344521 8.71774 0.370467 8.68604 0.403106C8.65433 0.435745 8.6294 0.474403 8.61292 0.516814C8.59643 0.559226 8.58863 0.60454 8.58997 0.650024V2.16H4.87V0.650024C4.87 0.557198 4.83309 0.468164 4.76746 0.402526C4.70182 0.336888 4.61285 0.300018 4.52002 0.300018H3.35999C3.26716 0.300018 3.17819 0.336888 3.11255 0.402526C3.04691 0.468164 3.01001 0.557198 3.01001 0.650024V2.16H1.62C1.43746 2.16 1.25666 2.19595 1.08801 2.26581C0.91937 2.33566 0.766158 2.43806 0.637085 2.56714C0.508012 2.69621 0.405669 2.84945 0.335815 3.0181C0.265961 3.18674 0.22998 3.36748 0.22998 3.55002V13.76C0.229971 14.1296 0.376083 14.4842 0.636475 14.7465C0.896867 15.0087 1.25043 15.1574 1.62 15.16H11.84C12.2095 15.1574 12.5631 15.0087 12.8235 14.7465C13.0839 14.4842 13.23 14.1296 13.23 13.76V3.55002C13.23 3.36748 13.194 3.18674 13.1241 3.0181C13.0543 2.84945 12.9519 2.69621 12.8229 2.56714C12.6938 2.43806 12.5406 2.33566 12.3719 2.26581C12.2033 2.19595 12.0225 2.16 11.84 2.16V2.16ZM11.66 13.76H1.80005C1.75399 13.7601 1.70963 13.7425 1.67615 13.7109C1.64266 13.6793 1.62255 13.636 1.62 13.59V4.94H11.84V13.59C11.8374 13.636 11.8173 13.6793 11.7838 13.7109C11.7503 13.7425 11.7061 13.7601 11.66 13.76V13.76Z" fill="black"/>
</svg>
